<svg width="70" height="70" viewBox="0 0 70 70" fill="none" xmlns="http://www.w3.org/2000/svg">
<circle cx="35" cy="35" r="35" fill="#6B1D1D"/>
<path d="M35 35.5417C33.4548 35.5417 31.9443 35.0652 30.6596 34.1724C29.3748 33.2797 28.3735 32.0107 27.7822 30.5261C27.1908 29.0414 27.0361 27.4077 27.3376 25.8316C27.639 24.2555 28.3831 22.8078 29.4757 21.6715C30.5683 20.5352 31.9603 19.7614 33.4758 19.4479C34.9913 19.1344 36.5621 19.2953 37.9897 19.9102C39.4172 20.5252 40.6374 21.5666 41.4958 22.9027C42.3543 24.2389 42.8125 25.8098 42.8125 27.4168C42.8125 29.5716 41.9894 31.6383 40.5242 33.162C39.0591 34.6857 37.072 35.5417 35 35.5417ZM35 22.5418C34.0729 22.5418 33.1666 22.8277 32.3957 23.3633C31.6249 23.899 31.0241 24.6604 30.6693 25.5512C30.3145 26.442 30.2217 27.4222 30.4025 28.3678C30.5834 29.3135 31.0298 30.1821 31.6854 30.8639C32.341 31.5457 33.1762 32.01 34.0855 32.1981C34.9948 32.3862 35.9373 32.2896 36.7938 31.9207C37.6503 31.5517 38.3824 30.9268 38.8975 30.1252C39.4125 29.3235 39.6875 28.3809 39.6875 27.4168C39.6875 26.1238 39.1936 24.8838 38.3145 23.9696C37.4354 23.0554 36.2432 22.5418 35 22.5418ZM49.5833 50.7084C49.1706 50.7028 48.7763 50.5298 48.4844 50.2263C48.1925 49.9227 48.0262 49.5126 48.0208 49.0834C48.0208 44.8584 45.8125 42.0417 35 42.0417C24.1875 42.0417 21.9791 44.8584 21.9791 49.0834C21.9791 49.5144 21.8145 49.9277 21.5215 50.2325C21.2285 50.5372 20.831 50.7084 20.4166 50.7084C20.0022 50.7084 19.6048 50.5372 19.3118 50.2325C19.0187 49.9277 18.8541 49.5144 18.8541 49.0834C18.8541 38.7917 30.1666 38.7917 35 38.7917C39.8333 38.7917 51.1458 38.7917 51.1458 49.0834C51.1404 49.5126 50.974 49.9227 50.6822 50.2263C50.3903 50.5298 49.996 50.7028 49.5833 50.7084Z" fill="white"/>
</svg>
